<svg xmlns="http://www.w3.org/2000/svg" version="1.1" width="1438" height="1438"><metadata><rdf:RDF xmlns:rdf="http://www.w3.org/1999/02/22-rdf-syntax-ns#" xmlns:dc="http://purl.org/dc/elements/1.1/"><rdf:Description><dc:creator>RealFaviconGenerator</dc:creator><dc:source>https://realfavicongenerator.net</dc:source></rdf:Description></rdf:RDF></metadata><path d="M0,0 L1438,0 L1438,1438 L0,1438 Z " fill="#000000" transform="translate(0,0)"></path><path d="M0,0 L231,0 L231,230 L114,230 L111,240 L98,266 L87,289 L57,349 L46,372 L14,436 L3,459 L1,463 L-117,463 L-117,234 L-231,235 L-243,260 L-255,284 L-265,303 L-289,350 L-310,391 L-330,430 L-342,453 L-346,460 L-460,460 L-572,236 L-690,235 L-690,2 L-459,2 L-458,3 L-456,197 L-455,218 L-406,120 L-395,97 L-348,3 L-347,2 L-113,2 L-112,221 L-95,187 L-85,168 L-50,98 L-40,79 L-6,11 Z " fill="#FEFEFE" transform="translate(959,510)"></path><path d="M0,0 L8,0 L8,1438 L0,1438 Z " fill="#0F1015" transform="translate(0,0)"></path><style>@media (prefers-color-scheme: light) { :root { filter: none; } }
@media (prefers-color-scheme: dark) { :root { filter: none; } }
</style></svg>